<svg width="31" height="31" viewBox="0 0 31 31" fill="none" xmlns="http://www.w3.org/2000/svg">
<rect width="31" height="31" fill="#E5E5E5"/>
<mask id="path-1-inside-1_0_1" fill="white">
<path d="M15.6748 0C7.20673 0 0.345703 6.86102 0.345703 15.3291C0.345703 23.7972 7.20673 30.6583 15.6748 30.6583C24.1429 30.6583 31.004 23.7972 31.004 15.3291C31.004 6.86102 24.1429 0 15.6748 0ZM15.6748 27.6913C8.85708 27.6913 3.31263 22.1469 3.31263 15.3291C3.31263 8.51138 8.85708 2.96693 15.6748 2.96693C22.4926 2.96693 28.037 8.51138 28.037 15.3291C28.037 22.1469 22.4926 27.6913 15.6748 27.6913ZM10.73 14.3402C11.824 14.3402 12.7079 13.4563 12.7079 12.3622C12.7079 11.2681 11.824 10.3843 10.73 10.3843C9.6359 10.3843 8.752 11.2681 8.752 12.3622C8.752 13.4563 9.6359 14.3402 10.73 14.3402ZM20.6197 10.3843C19.5257 10.3843 18.6418 11.2681 18.6418 12.3622C18.6418 13.4563 19.5257 14.3402 20.6197 14.3402C21.7138 14.3402 22.5977 13.4563 22.5977 12.3622C22.5977 11.2681 21.7138 10.3843 20.6197 10.3843ZM21.1142 19.285H10.2355C9.41956 19.285 8.752 19.9526 8.752 20.7685C8.752 21.5844 9.41956 22.252 10.2355 22.252H21.1142C21.9301 22.252 22.5977 21.5844 22.5977 20.7685C22.5977 19.9526 21.9301 19.285 21.1142 19.285Z"/>
</mask>
<path d="M15.6748 0C7.20673 0 0.345703 6.86102 0.345703 15.3291C0.345703 23.7972 7.20673 30.6583 15.6748 30.6583C24.1429 30.6583 31.004 23.7972 31.004 15.3291C31.004 6.86102 24.1429 0 15.6748 0ZM15.6748 27.6913C8.85708 27.6913 3.31263 22.1469 3.31263 15.3291C3.31263 8.51138 8.85708 2.96693 15.6748 2.96693C22.4926 2.96693 28.037 8.51138 28.037 15.3291C28.037 22.1469 22.4926 27.6913 15.6748 27.6913ZM10.73 14.3402C11.824 14.3402 12.7079 13.4563 12.7079 12.3622C12.7079 11.2681 11.824 10.3843 10.73 10.3843C9.6359 10.3843 8.752 11.2681 8.752 12.3622C8.752 13.4563 9.6359 14.3402 10.73 14.3402ZM20.6197 10.3843C19.5257 10.3843 18.6418 11.2681 18.6418 12.3622C18.6418 13.4563 19.5257 14.3402 20.6197 14.3402C21.7138 14.3402 22.5977 13.4563 22.5977 12.3622C22.5977 11.2681 21.7138 10.3843 20.6197 10.3843ZM21.1142 19.285H10.2355C9.41956 19.285 8.752 19.9526 8.752 20.7685C8.752 21.5844 9.41956 22.252 10.2355 22.252H21.1142C21.9301 22.252 22.5977 21.5844 22.5977 20.7685C22.5977 19.9526 21.9301 19.285 21.1142 19.285Z" stroke="#AEAEAE" stroke-width="28" mask="url(#path-1-inside-1_0_1)"/>
</svg>
