<svg class="svg-icon" style="width: 1em; height: 1em;vertical-align: middle;fill: currentColor;overflow: hidden;" viewBox="0 0 1024 1024" version="1.1" xmlns="http://www.w3.org/2000/svg"><path d="M510.7 113.8c54 0 106.3 10.5 155.6 31.3 47.6 20.1 90.3 48.8 127 85.4 36.7 36.6 65.5 79.2 85.6 126.6 20.8 49.1 31.4 101.2 31.4 155S899.8 618 879 667c-20.1 47.4-48.9 90-85.6 126.6-36.7 36.6-79.5 65.3-127 85.4-49.3 20.8-101.6 31.3-155.6 31.3S404.5 899.8 355.2 879c-47.6-20.1-90.3-48.8-127-85.4-36.7-36.6-65.5-79.2-85.6-126.6-20.8-49.1-31.4-101.2-31.4-155s10.6-105.9 31.4-155c20.1-47.4 48.9-90 85.6-126.6 36.7-36.6 79.5-65.3 127-85.4 49.2-20.7 101.5-31.2 155.5-31.2m0-50c-248.3 0-449.6 200.7-449.6 448.3s201.3 448.3 449.6 448.3 449.6-200.7 449.6-448.3S759 63.8 510.7 63.8zM694.1 383.8m-63.8 0a63.8 63.8 0 1 0 127.6 0 63.8 63.8 0 1 0-127.6 0ZM330.1 383.8m-63.6 0a63.6 63.6 0 1 0 127.2 0 63.6 63.6 0 1 0-127.2 0ZM511 753.5c-40.8 0-80.1-8.5-117-25.3-35.6-16.2-67-39.2-93.2-68.3-9.2-10.3-8.4-26.1 1.8-35.3 10.3-9.2 26.1-8.4 35.3 1.8 44.2 49 107.2 77.1 173.1 77.1 66.6 0 130.2-28.6 174.4-78.5 9.2-10.3 25-11.3 35.3-2.1 10.3 9.2 11.3 25 2.1 35.3-53.7 60.6-130.9 95.3-211.8 95.3z"  /></svg>