<svg class="svg-icon" style="width: 1em; height: 1em;vertical-align: middle;fill: currentColor;overflow: hidden;" viewBox="0 0 1024 1024" version="1.1" xmlns="http://www.w3.org/2000/svg"><path d="M513 959c-60.4 0-118.9-11.8-174.1-35.2-53.3-22.5-101.1-54.8-142.1-95.8-41.1-41.1-73.3-88.9-95.8-142.1-23.3-55.2-35.2-113.7-35.2-174.1s11.8-118.9 35.2-174.1c22.5-53.3 54.8-101.1 95.8-142.1 41.1-41.1 88.9-73.3 142.1-95.8C394.1 76.4 452.6 64.6 513 64.6s118.9 11.8 174.1 35.2c53.3 22.5 101.1 54.8 142.1 95.8 41.1 41.1 73.3 88.9 95.8 142.1 23.3 55.2 35.2 113.7 35.2 174.1s-11.8 118.9-35.2 174.1C902.5 739.1 870.3 787 829.2 828c-41.1 41.1-88.9 73.3-142.1 95.8C631.9 947.2 573.4 959 513 959zM513 120.6c-52.8 0-104.1 10.3-152.3 30.7-46.6 19.7-88.4 47.9-124.4 83.9-35.9 35.9-64.2 77.8-83.9 124.4-20.4 48.2-30.7 99.4-30.7 152.3s10.3 104.1 30.7 152.3c19.7 46.6 47.9 88.4 83.9 124.4 35.9 35.9 77.8 64.2 124.4 83.9C408.9 892.7 460.2 903 513 903s104.1-10.3 152.3-30.7c46.6-19.7 88.4-47.9 124.4-83.9 35.9-35.9 64.2-77.8 83.9-124.4 20.4-48.2 30.7-99.4 30.7-152.3s-10.3-104.1-30.7-152.3c-19.7-46.6-47.9-88.4-83.9-124.4-35.9-35.9-77.8-64.2-124.4-83.9C617.1 130.9 565.8 120.6 513 120.6z" fill="" /><path d="M630.6 398.3m-46.7 0a46.7 46.7 0 1 0 93.4 0 46.7 46.7 0 1 0-93.4 0Z" fill="" /><path d="M393.7 398.3m-46.7 0a46.7 46.7 0 1 0 93.4 0 46.7 46.7 0 1 0-93.4 0Z" fill="" /><path d="M513 790c-55.2 0-110-18.4-154.3-51.8-42.4-31.9-72.5-74.9-84.9-120.9-4.7-17.4-1-35.6 10-50 11.1-14.5 27.9-22.8 46.1-22.8l366.3-0.1h0c0 0 0 0 0 0 18.2 0 35 8.3 46.1 22.7 11 14.4 14.7 32.6 10 50-12.3 46-42.5 89-84.9 120.9C623 771.6 568.2 790 513 790zM696.1 600.4l-366.3 0.1c-0.3 0-1 0-1.7 0.8-0.5 0.7-0.4 1.2-0.3 1.4 9 33.5 32.5 66.5 64.5 90.6C427.1 719.6 469.9 734 513 734c43.1 0 85.9-14.4 120.7-40.6 32-24.1 55.5-57.2 64.5-90.7 0.1-0.3 0.2-0.7-0.3-1.4C697.2 600.4 696.4 600.4 696.1 600.4L696.1 600.4z" fill="" /></svg>