<svg width="31" height="31" viewBox="0 0 31 31" fill="none" xmlns="http://www.w3.org/2000/svg">
<rect width="31" height="31" fill="#E5E5E5"/>
<mask id="path-1-inside-1_0_1" fill="white">
<path d="M15.5 0C6.9375 0 0 6.9375 0 15.5C0 24.0625 6.9375 31 15.5 31C24.0625 31 31 24.0625 31 15.5C31 6.9375 24.0625 0 15.5 0ZM15.5 28C8.60625 28 3 22.3938 3 15.5C3 8.60625 8.60625 3 15.5 3C22.3938 3 28 8.60625 28 15.5C28 22.3938 22.3938 28 15.5 28ZM10.5 14.5C11.6063 14.5 12.5 13.6063 12.5 12.5C12.5 11.3937 11.6063 10.5 10.5 10.5C9.39375 10.5 8.5 11.3937 8.5 12.5C8.5 13.6063 9.39375 14.5 10.5 14.5ZM20.5 14.5C21.6063 14.5 22.5 13.6063 22.5 12.5C22.5 11.3937 21.6063 10.5 20.5 10.5C19.3937 10.5 18.5 11.3937 18.5 12.5C18.5 13.6063 19.3937 14.5 20.5 14.5ZM20.75 19.0375C19.45 20.6 17.5312 21.5 15.5 21.5C13.4688 21.5 11.55 20.6063 10.25 19.0375C9.71875 18.4 8.76875 18.3188 8.1375 18.8438C7.5 19.375 7.41875 20.3187 7.94375 20.9562C9.81875 23.2062 12.575 24.4937 15.5 24.4937C18.425 24.4937 21.1812 23.2062 23.0562 20.9562C23.5875 20.3187 23.5 19.375 22.8625 18.8438C22.2312 18.3188 21.2812 18.4 20.75 19.0375Z"/>
</mask>
<path d="M15.5 0C6.9375 0 0 6.9375 0 15.5C0 24.0625 6.9375 31 15.5 31C24.0625 31 31 24.0625 31 15.5C31 6.9375 24.0625 0 15.5 0ZM15.5 28C8.60625 28 3 22.3938 3 15.5C3 8.60625 8.60625 3 15.5 3C22.3938 3 28 8.60625 28 15.5C28 22.3938 22.3938 28 15.5 28ZM10.5 14.5C11.6063 14.5 12.5 13.6063 12.5 12.5C12.5 11.3937 11.6063 10.5 10.5 10.5C9.39375 10.5 8.5 11.3937 8.5 12.5C8.5 13.6063 9.39375 14.5 10.5 14.5ZM20.5 14.5C21.6063 14.5 22.5 13.6063 22.5 12.5C22.5 11.3937 21.6063 10.5 20.5 10.5C19.3937 10.5 18.5 11.3937 18.5 12.5C18.5 13.6063 19.3937 14.5 20.5 14.5ZM20.75 19.0375C19.45 20.6 17.5312 21.5 15.5 21.5C13.4688 21.5 11.55 20.6063 10.25 19.0375C9.71875 18.4 8.76875 18.3188 8.1375 18.8438C7.5 19.375 7.41875 20.3187 7.94375 20.9562C9.81875 23.2062 12.575 24.4937 15.5 24.4937C18.425 24.4937 21.1812 23.2062 23.0562 20.9562C23.5875 20.3187 23.5 19.375 22.8625 18.8438C22.2312 18.3188 21.2812 18.4 20.75 19.0375Z" stroke="#AEAEAE" stroke-width="28" mask="url(#path-1-inside-1_0_1)"/>
</svg>
