<svg width="31" height="31" viewBox="0 0 31 31" fill="none" xmlns="http://www.w3.org/2000/svg">
<path d="M19.3438 11.782C19.3616 11.8022 19.3794 11.8225 19.3969 11.843C19.3802 11.8384 19.3634 11.8338 19.3467 11.8293C19.3457 11.8135 19.3448 11.7978 19.3438 11.782ZM11.2613 11.843C11.2789 11.8225 11.2966 11.8022 11.3145 11.782C11.3135 11.7978 11.3125 11.8135 11.3116 11.8293C11.2948 11.8338 11.2781 11.8384 11.2613 11.843ZM15.3095 20.6913C15.3154 20.6714 15.3213 20.6514 15.3274 20.6316C15.328 20.6335 15.3286 20.6354 15.3291 20.6373C15.3346 20.6553 15.34 20.6733 15.3453 20.6913C15.3399 20.6913 15.3345 20.6913 15.3291 20.6913C15.3226 20.6913 15.3161 20.6913 15.3095 20.6913Z" stroke="#AEAEAE" stroke-width="14"/>
</svg>
