<svg width="31" height="31" viewBox="0 0 31 31" fill="none" xmlns="http://www.w3.org/2000/svg">
<path d="M19.3438 11.782C19.485 11.9416 19.6169 12.1095 19.7385 12.285H19.3619C19.3605 12.1162 19.3544 11.9485 19.3438 11.782ZM11.3145 11.782C11.3039 11.9485 11.2978 12.1162 11.2964 12.285H10.9197C11.0414 12.1095 11.1733 11.9416 11.3145 11.782ZM15.2525 20.6908C15.2564 20.4081 15.2815 20.1305 15.3262 19.8597C15.3272 19.859 15.3282 19.8584 15.3291 19.8577C15.3301 19.8584 15.3311 19.859 15.332 19.8597C15.3768 20.1305 15.4019 20.4081 15.4058 20.6908C15.3803 20.6912 15.3547 20.6913 15.3291 20.6913C15.3035 20.6913 15.278 20.6912 15.2525 20.6908Z" stroke="#AEAEAE" stroke-width="14"/>
</svg>
