<svg width="31" height="31" viewBox="0 0 31 31" fill="none" xmlns="http://www.w3.org/2000/svg">
<path d="M19.4077 11.782C19.4256 11.8022 19.4433 11.8225 19.4609 11.843C19.4442 11.8384 19.4274 11.8338 19.4106 11.8293C19.4097 11.8135 19.4087 11.7978 19.4077 11.782ZM11.3253 11.843C11.3429 11.8225 11.3606 11.8022 11.3785 11.782C11.3775 11.7978 11.3765 11.8135 11.3756 11.8293C11.3588 11.8338 11.342 11.8384 11.3253 11.843ZM15.3735 20.6913C15.3793 20.6714 15.3853 20.6514 15.3913 20.6316C15.3919 20.6335 15.3925 20.6354 15.3931 20.6373C15.3986 20.6553 15.404 20.6733 15.4092 20.6913C15.4039 20.6913 15.3985 20.6913 15.3931 20.6913C15.3866 20.6913 15.38 20.6913 15.3735 20.6913Z" stroke="#AEAEAE" stroke-width="14"/>
</svg>
