<svg width="13" height="13" viewBox="0 0 13 13" fill="none" xmlns="http://www.w3.org/2000/svg">
<path d="M11.4517 6.10456L12.1264 4.93846C12.2951 4.64572 12.1949 4.2723 11.9033 4.10362L10.736 3.4289V2.08434C10.736 1.74637 10.4628 1.47318 10.1249 1.47318H8.78091L8.1068 0.306476C8.02551 0.16652 7.89167 0.0638451 7.73582 0.021675C7.57937 -0.0211063 7.41252 0.00150678 7.27195 0.0827912L6.10464 0.757513L4.93732 0.0821799C4.64457 -0.0871116 4.27115 0.01373 4.10247 0.305865L3.42775 1.47318H2.08381C1.74584 1.47318 1.47265 1.74637 1.47265 2.08434V3.42828L0.305333 4.10301C0.164766 4.18429 0.0627019 4.31813 0.021143 4.47459C-0.0204159 4.63166 0.00158581 4.7979 0.082259 4.93846L0.756981 6.10456L0.082259 7.27065C0.00097465 7.41122 -0.021027 7.57807 0.0205319 7.73513C0.0620908 7.89159 0.164155 8.02544 0.304722 8.10611L1.47204 8.78083V10.1248C1.47204 10.4627 1.74523 10.7359 2.0832 10.7359H3.42775L4.10247 11.9033C4.18376 12.0432 4.3176 12.1453 4.47406 12.1881C4.52601 12.2015 4.57857 12.2088 4.63174 12.2088C4.73808 12.2088 4.84381 12.1807 4.93793 12.1263L6.10403 11.4516L7.27134 12.1263C7.4113 12.2076 7.57876 12.229 7.73521 12.1874C7.89167 12.1459 8.02551 12.0438 8.10619 11.9033L8.7803 10.7359H10.1242C10.4622 10.7359 10.7354 10.4627 10.7354 10.1248V8.78083L11.9027 8.10611C12.1949 7.93682 12.2951 7.56279 12.1258 7.27065L11.4517 6.10456ZM4.57612 3.04264C5.08216 3.04264 5.49286 3.45334 5.49286 3.95938C5.49286 4.46542 5.08216 4.87612 4.57612 4.87612C4.07008 4.87612 3.65938 4.46542 3.65938 3.95938C3.65938 3.45334 4.07008 3.04264 4.57612 3.04264ZM4.75947 8.90979L3.78162 8.177L7.44858 3.28772L8.42644 4.0205L4.75947 8.90979ZM7.63193 9.15425C7.12589 9.15425 6.71519 8.74355 6.71519 8.23751C6.71519 7.73147 7.12589 7.32077 7.63193 7.32077C8.13797 7.32077 8.54867 7.73147 8.54867 8.23751C8.54867 8.74355 8.13797 9.15425 7.63193 9.15425Z" fill="#F78F43"/>
</svg>
