<svg width="40" height="40" viewBox="0 0 40 40" fill="none" xmlns="http://www.w3.org/2000/svg">
<path d="M3.4375 20C3.4375 29.1406 10.8438 36.5625 20 36.5625C29.1406 36.5625 36.5625 29.1562 36.5625 20C36.5625 10.8594 29.1562 3.4375 20 3.4375C10.8594 3.4375 3.4375 10.8594 3.4375 20Z" fill="#F5E94D"/>
<path d="M20 3.4375C29.1406 3.4375 36.5625 10.8594 36.5625 20C36.5625 29.1406 29.1406 36.5625 20 36.5625C10.8594 36.5625 3.4375 29.1406 3.4375 20C3.4375 10.8594 10.8594 3.4375 20 3.4375ZM20 1.5625C9.82812 1.5625 1.5625 9.82812 1.5625 20C1.5625 30.1719 9.82812 38.4375 20 38.4375C30.1719 38.4375 38.4375 30.1719 38.4375 20C38.4375 9.82812 30.1719 1.5625 20 1.5625Z" fill="#EE741B"/>
<path d="M5.28125 20C5.28125 28.125 11.875 34.7188 20 34.7188C28.125 34.7188 34.7188 28.125 34.7188 20C34.7188 11.875 28.125 5.28125 20 5.28125C11.875 5.28125 5.28125 11.875 5.28125 20Z" fill="white"/>
<path d="M18.6874 15.6562C18.8124 16.2812 19.3749 16.7188 19.9999 16.7188C20.6249 16.7188 21.1562 16.2812 21.3124 15.6562L22.8749 8.29687C23.0624 7.48437 22.4062 6.70312 21.5624 6.70312H18.4374C17.5937 6.70312 16.9687 7.48437 17.1249 8.29687L18.6874 15.6562ZM21.3124 24.3438C21.1874 23.7188 20.6249 23.2812 19.9999 23.2812C19.3749 23.2812 18.8437 23.7188 18.6874 24.3438L17.1249 31.7031C16.9374 32.5156 17.5937 33.2969 18.4374 33.2969H21.5624C22.4062 33.2969 23.0312 32.5156 22.8749 31.7031L21.3124 24.3438ZM16.2812 17.1875C16.7499 17.625 17.4687 17.6562 17.9999 17.2812C18.5312 16.9062 18.7187 16.2188 18.4374 15.625L15.3124 8.54687C14.9687 7.76562 13.9687 7.48437 13.2499 7.98437L10.6562 9.85937C9.93742 10.3594 9.90617 11.3906 10.5312 11.9844L16.2812 17.1875ZM23.7187 22.8125C23.2499 22.375 22.5312 22.3437 21.9999 22.7187C21.4687 23.0937 21.2812 23.7812 21.5624 24.375L24.6874 31.4531C25.0312 32.2344 26.0312 32.5156 26.7499 32.0156L29.3749 30.1094C30.0937 29.6094 30.1249 28.5781 29.4999 27.9844L23.7187 22.8125ZM7.98429 19.125L15.4687 19.9062C16.0937 19.9688 16.6874 19.5937 16.8749 19C17.0624 18.4062 16.8124 17.75 16.2812 17.4375L9.76554 13.6406C9.04679 13.2031 8.10929 13.5781 7.82804 14.3906L6.85929 17.3906C6.57804 18.1875 7.14054 19.0312 7.98429 19.125ZM32.0155 20.875L24.5312 20.0938C23.9062 20.0313 23.3124 20.4062 23.1249 21C22.9374 21.5937 23.1874 22.25 23.7187 22.5625L30.2343 26.3125C30.953 26.75 31.8905 26.375 32.1718 25.5625L33.1405 22.5625C33.4218 21.8125 32.8593 20.9688 32.0155 20.875ZM16.8749 21.0313C16.6874 20.4375 16.0937 20.0625 15.4687 20.125L7.98429 20.9062C7.14054 21 6.60929 21.8438 6.85929 22.625L7.82804 25.625C8.07804 26.4375 9.01554 26.7812 9.76554 26.375L16.2812 22.625C16.8124 22.2812 17.0624 21.625 16.8749 21.0313ZM23.1249 18.9688C23.3124 19.5625 23.9062 19.9375 24.5312 19.875L32.0155 19.0937C32.8593 19 33.3905 18.1562 33.1405 17.375L32.1718 14.375C31.9218 13.5625 30.9843 13.2187 30.2343 13.625L23.7187 17.4062C23.1874 17.75 22.9374 18.375 23.1249 18.9688ZM18.0624 22.6562C17.5624 22.2812 16.8437 22.3125 16.4062 22.75L10.7968 27.7969C10.1718 28.3594 10.2343 29.3594 10.8905 29.8594L13.4218 31.7031C14.1093 32.2031 15.078 31.9531 15.4218 31.1719L18.4843 24.2812C18.7499 23.7187 18.5624 23.0312 18.0624 22.6562ZM21.9374 17.3438C22.4374 17.7188 23.1562 17.6875 23.5937 17.25L29.203 12.2031C29.828 11.6406 29.7655 10.6406 29.1093 10.1406L26.578 8.29687C25.8905 7.79687 24.9218 8.04687 24.578 8.82812L21.5155 15.7188C21.2499 16.2812 21.4374 16.9688 21.9374 17.3438Z" fill="#F4A018"/>
</svg>
