<svg width="34" height="34" viewBox="0 0 34 34" fill="none" xmlns="http://www.w3.org/2000/svg">
<path d="M8.78877 0.0847225C8.12278 0.171166 7.00726 0.646608 6.52442 1.03561C5.94168 1.49664 5.15914 2.37549 4.24341 3.5857C0.114292 9.04607 -1.08448 15.8895 1.01337 22.1999C2.2288 25.8738 4.39326 29.0146 7.83974 32.1122C8.92197 33.0775 9.25496 33.308 9.9709 33.6249C10.8034 33.9851 10.8367 33.9851 12.202 33.9995C14.3331 34.0139 15.432 33.697 16.4976 32.7749C17.2968 32.0834 17.6131 31.4062 17.5964 30.2969C17.5964 29.7062 17.5298 29.3316 17.38 28.9858C17.2635 28.712 16.4976 27.6891 15.6817 26.695C14.5163 25.2687 14.1 24.8221 13.6671 24.5772C12.6681 24.0297 12.3019 23.9576 10.6202 24.0297L9.10511 24.1017L8.63892 23.439C7.60664 21.9982 6.97396 20.6007 6.55772 18.9295C6.20807 17.5176 6.20807 15.0683 6.57436 13.6564C6.80746 12.6911 7.4901 10.8614 7.67324 10.7173C7.72319 10.6741 8.32258 10.6021 8.98857 10.5444C9.95425 10.458 10.3705 10.3715 10.9199 10.141C12.0355 9.67999 12.4184 9.21896 13.6338 6.89938C14.5662 5.09847 14.6994 4.79591 14.7494 4.19081C14.8992 2.14497 13.2009 0.444905 10.6369 0.0991297C9.82105 -0.0305361 9.5713 -0.030536 8.78877 0.0847225Z" fill="#F78F43"/>
<path d="M14.1334 13.815C11.9522 14.4921 11.0365 16.5091 12.1187 18.238C13.2676 20.0389 16.0647 20.3847 17.7297 18.9296C18.4956 18.2668 18.7287 17.7482 18.7287 16.7541C18.7287 15.7888 18.4789 15.2125 17.7297 14.5786C16.814 13.7429 15.3155 13.4404 14.1334 13.815Z" fill="#F78F43"/>
<path d="M22.608 14.5352C22.0585 14.6937 21.1261 15.5293 20.9596 16.0192C20.6433 16.9412 20.9097 17.7624 21.7089 18.4108C22.8244 19.3184 24.2896 19.2896 25.3552 18.3531C26.4873 17.3446 26.4873 16.12 25.3552 15.1403C24.556 14.4488 23.6402 14.2471 22.608 14.5352Z" fill="#F78F43"/>
<path d="M31.0826 14.8954C30.5665 15.025 30.0337 15.4427 29.784 15.8893C29.3011 16.7535 29.6175 17.7761 30.5332 18.3235C30.9661 18.5683 31.1159 18.6115 31.7819 18.6115C32.4479 18.6115 32.6144 18.5683 33.0306 18.3235C34.4126 17.4881 34.296 15.7308 32.8142 15.0538C32.1982 14.7802 31.6654 14.737 31.0826 14.8954Z" fill="#F78F43"/>
</svg>
