<svg width="24" height="24" viewBox="0 0 24 24" fill="none" xmlns="http://www.w3.org/2000/svg">
<g clip-path="url(#clip0_372_1808)">
<path d="M1.39687 8.22187C1.65 8.22187 1.85625 8.01563 1.85625 7.7625V4.575C1.85625 3.075 3.075 1.85625 4.575 1.85625H7.75312C8.00625 1.85625 8.2125 1.65 8.2125 1.39687C8.2125 1.14375 8.01563 0.9375 7.7625 0.9375H4.575C2.56875 0.9375 0.9375 2.56875 0.9375 4.575V7.75312C0.9375 8.01562 1.14375 8.22187 1.39687 8.22187Z" fill="white"/>
<path d="M19.425 0.9375H16.7719C16.5187 0.9375 16.3125 1.14375 16.3125 1.39687C16.3125 1.65 16.5187 1.85625 16.7719 1.85625H19.425C20.925 1.85625 22.1437 3.075 22.1437 4.575V7.75312C22.1437 8.00625 22.35 8.2125 22.6031 8.2125C22.8563 8.2125 23.0625 8.00625 23.0625 7.75312V4.575C23.0625 2.56875 21.4312 0.9375 19.425 0.9375Z" fill="white"/>
<path d="M7.7625 22.1344H4.575C3.075 22.1344 1.85625 20.9156 1.85625 19.4156V16.2375C1.85625 15.9844 1.65 15.7781 1.39687 15.7781C1.14375 15.7781 0.9375 15.9844 0.9375 16.2375V19.4156C0.9375 21.4219 2.56875 23.0531 4.575 23.0531H7.75312C8.00625 23.0531 8.2125 22.8469 8.2125 22.5938C8.22187 22.3406 8.01563 22.1344 7.7625 22.1344Z" fill="white"/>
<path d="M22.6031 15.7781C22.35 15.7781 22.1437 15.9844 22.1437 16.2375V19.4156C22.1437 20.9156 20.925 22.1344 19.425 22.1344H16.7719C16.5187 22.1344 16.3125 22.3406 16.3125 22.5938C16.3125 22.8469 16.5187 23.0531 16.7719 23.0531H19.425C21.4312 23.0531 23.0625 21.4219 23.0625 19.4156V16.2281C23.0625 15.9844 22.8563 15.7781 22.6031 15.7781Z" fill="white"/>
<path d="M3.05627 12C3.05627 12.2531 3.26252 12.4594 3.51565 12.4594H20.475C20.7281 12.4594 20.9344 12.2531 20.9344 12C20.9344 11.7469 20.7281 11.5406 20.475 11.5406H3.51565C3.26252 11.5406 3.05627 11.7469 3.05627 12Z" fill="white"/>
</g>
<defs>
<clipPath id="clip0_372_1808">
<rect width="24" height="24" fill="white"/>
</clipPath>
</defs>
</svg>
