<svg width="38" height="38" viewBox="0 0 38 38" fill="none" xmlns="http://www.w3.org/2000/svg">
<path d="M12.0988 18.6735V12.3926C13.4387 12.1867 14.4704 11.0456 14.4704 9.65972C14.4704 8.12918 13.2146 6.88334 11.6719 6.88334C10.1292 6.88334 8.87352 8.128 8.87352 9.65854C8.87352 11.0444 9.90514 12.1867 11.2451 12.3914V18.6559C11.0648 18.6535 10.8893 18.6453 10.7067 18.6453H4.98419V11.215C6.32411 11.0091 7.35573 9.86795 7.35573 8.48211C7.35573 6.95157 6.1 5.70573 4.55731 5.70573C3.01462 5.70573 1.75889 6.95157 1.75889 8.48211C1.75889 9.86795 2.79051 11.0103 4.13043 11.215V18.6465H1V19.4935H4.55494H4.55731H4.55968H10.7067C19.1779 19.4935 25.23 21.9911 30.3265 27.5885L30.9609 27.0215C25.9723 21.5429 20.1099 18.9394 12.0988 18.6735ZM2.61265 8.48211C2.61265 7.41861 3.48538 6.55276 4.55731 6.55276C5.62925 6.55276 6.50198 7.41861 6.50198 8.48211C6.50198 9.5456 5.62925 10.4115 4.55731 10.4115C3.48538 10.4115 2.61265 9.5456 2.61265 8.48211ZM9.72727 9.65854C9.72727 8.59505 10.6 7.72919 11.6719 7.72919C12.7439 7.72919 13.6166 8.59505 13.6166 9.65854C13.6166 10.722 12.7439 11.5879 11.6719 11.5879C10.6 11.5879 9.72727 10.722 9.72727 9.65854ZM30.9621 36.433L30.3277 37C25.23 31.4014 19.1791 28.905 10.7079 28.905H1V28.0579H10.7067C19.4399 28.0579 25.6866 30.6414 30.9621 36.433ZM30.9621 31.7272L30.3277 32.2943C25.23 26.6956 19.1791 24.1992 10.7079 24.1992H1V23.3522H10.7067C19.4399 23.3522 25.6866 25.9357 30.9621 31.7272ZM28.2727 13.6114C26.0755 13.6114 24.2885 11.8385 24.2885 9.65854C24.2885 7.47861 26.0755 5.70573 28.2727 5.70573C30.47 5.70573 32.2569 7.47861 32.2569 9.65854C32.2569 11.8385 30.47 13.6114 28.2727 13.6114ZM28.2727 6.55276C26.5462 6.55276 25.1423 7.94683 25.1423 9.65854C25.1423 11.3702 26.5462 12.7643 28.2727 12.7643C29.9992 12.7643 31.4032 11.3714 31.4032 9.65854C31.4032 7.94566 29.9992 6.55276 28.2727 6.55276ZM28.2727 4.1999C28.0368 4.1999 27.8458 4.01049 27.8458 3.77638V1.42352C27.8458 1.18941 28.0368 1 28.2727 1C28.5087 1 28.6996 1.18941 28.6996 1.42352V3.77638C28.6996 4.01049 28.5087 4.1999 28.2727 4.1999ZM24.081 5.92219C23.9719 5.92219 23.8617 5.88102 23.7787 5.79867L22.1008 4.13519C21.9336 3.96931 21.9336 3.70109 22.1008 3.53639C22.268 3.37169 22.5383 3.37169 22.7055 3.53639L24.3834 5.19986C24.5506 5.36574 24.5506 5.63397 24.3834 5.79867C24.2992 5.88102 24.1901 5.92219 24.081 5.92219ZM22.3439 10.0821H19.9723C19.7364 10.0821 19.5455 9.89265 19.5455 9.65854C19.5455 9.42443 19.7364 9.23502 19.9723 9.23502H22.3439C22.5798 9.23502 22.7708 9.42443 22.7708 9.65854C22.7708 9.89265 22.5798 10.0821 22.3439 10.0821ZM22.4032 15.9054C22.2941 15.9054 22.1838 15.8642 22.1008 15.7819C21.9336 15.616 21.9336 15.3478 22.1008 15.1831L23.7787 13.5196C23.9458 13.3549 24.2162 13.3549 24.3834 13.5196C24.5506 13.6843 24.5506 13.9537 24.3834 14.1184L22.7055 15.7819C22.6213 15.863 22.5123 15.9054 22.4032 15.9054ZM28.2727 18.3171C28.0368 18.3171 27.8458 18.1277 27.8458 17.8936V15.5407C27.8458 15.3066 28.0368 15.1172 28.2727 15.1172C28.5087 15.1172 28.6996 15.3066 28.6996 15.5407V17.8936C28.6996 18.1277 28.5087 18.3171 28.2727 18.3171ZM34.1423 15.9054C34.0332 15.9054 33.9229 15.8642 33.8399 15.7819L32.1621 14.1184C31.9949 13.9525 31.9949 13.6843 32.1621 13.5196C32.3292 13.3549 32.5996 13.3549 32.7668 13.5196L34.4447 15.1831C34.6119 15.3489 34.6119 15.6172 34.4447 15.7819C34.3617 15.863 34.2514 15.9054 34.1423 15.9054ZM36.5731 10.0821H34.2016C33.9656 10.0821 33.7747 9.89265 33.7747 9.65854C33.7747 9.42443 33.9656 9.23502 34.2016 9.23502H36.5731C36.8091 9.23502 37 9.42443 37 9.65854C37 9.89265 36.8091 10.0821 36.5731 10.0821ZM32.4644 5.92219C32.3553 5.92219 32.2451 5.88102 32.1621 5.79867C31.9949 5.63279 31.9949 5.36456 32.1621 5.19986L33.8399 3.53639C34.0071 3.37169 34.2775 3.37169 34.4447 3.53639C34.6119 3.70109 34.6119 3.97049 34.4447 4.13519L32.7668 5.79867C32.6838 5.88102 32.5735 5.92219 32.4644 5.92219Z" stroke="#F78F43" stroke-width="1.2" stroke-linejoin="round"/>
</svg>
