<svg width="36" height="36" viewBox="0 0 36 36" fill="none" xmlns="http://www.w3.org/2000/svg">
<path d="M14.1532 2.53829H13.1532V3.53829V9.07573V10.9801L14.7209 9.89894L17.2756 8.13709C17.3996 8.05738 17.5439 8.01496 17.6915 8.01496C17.839 8.01496 17.9833 8.05738 18.1073 8.13709L20.662 9.89894L22.2298 10.9801V9.07573V3.53829V2.53829H21.2298H14.1532ZM11.6149 3.53829V2.53829H10.6149H5.30744C4.57302 2.53829 3.86867 2.83004 3.34936 3.34936L4.05647 4.05647L3.34936 3.34936C2.83004 3.86867 2.53829 4.57302 2.53829 5.30744V30.0755C2.53829 30.8099 2.83004 31.5143 3.34936 32.0336C3.86868 32.5529 4.57302 32.8447 5.30744 32.8447H30.0755C30.8099 32.8447 31.5143 32.5529 32.0336 32.0336C32.5529 31.5143 32.8447 30.8099 32.8447 30.0755V5.30744C32.8447 4.57302 32.5529 3.86868 32.0336 3.34936C31.5143 2.83004 30.8099 2.53829 30.0755 2.53829H24.7681H23.7681V3.53829V12.3809C23.767 12.5187 23.7289 12.6537 23.6578 12.7718C23.5863 12.8904 23.4841 12.9876 23.362 13.053L23.8341 13.9345L23.362 13.053C23.2399 13.1183 23.1024 13.1495 22.9641 13.1433C22.8263 13.137 22.6927 13.0938 22.5774 13.0182C22.5769 13.0179 22.5764 13.0176 22.5759 13.0173L18.2454 10.1361L17.6937 9.76911L17.1407 10.1341L12.7754 13.0148C12.6626 13.087 12.5329 13.1286 12.399 13.1353C12.2665 13.1419 12.1345 13.1141 12.016 13.0547C11.896 12.9893 11.7957 12.8932 11.7251 12.7761C11.6536 12.6573 11.6155 12.5212 11.6149 12.3825V3.53829ZM5.30744 1H30.0755C31.2179 1 32.3135 1.45382 33.1213 2.26162C33.9291 3.06942 34.3829 4.16504 34.3829 5.30744V30.0755C34.3829 31.2179 33.9291 32.3135 33.1213 33.1213C32.3135 33.9291 31.2179 34.3829 30.0755 34.3829H5.30744C4.16504 34.3829 3.06942 33.9291 2.26162 33.1213C1.45382 32.3135 1 31.2179 1 30.0755V5.30744C1 4.16504 1.45382 3.06942 2.26162 2.26162C3.06942 1.45382 4.16504 1 5.30744 1Z" stroke="#F78F43" stroke-width="2"/>
</svg>
