<svg width="31" height="31" viewBox="0 0 31 31" fill="none" xmlns="http://www.w3.org/2000/svg">
<path d="M15.3154 17.8678C16.7251 17.8678 17.8679 16.725 17.8679 15.3153C17.8679 13.9055 16.7251 12.7627 15.3154 12.7627C13.9056 12.7627 12.7628 13.9055 12.7628 15.3153C12.7628 16.725 13.9056 17.8678 15.3154 17.8678Z" fill="#F78F43"/>
<path d="M24.2493 17.8678C25.6591 17.8678 26.8019 16.725 26.8019 15.3153C26.8019 13.9055 25.6591 12.7627 24.2493 12.7627C22.8396 12.7627 21.6968 13.9055 21.6968 15.3153C21.6968 16.725 22.8396 17.8678 24.2493 17.8678Z" fill="#F78F43"/>
<path d="M6.38142 17.8678C7.79117 17.8678 8.93399 16.725 8.93399 15.3153C8.93399 13.9055 7.79117 12.7627 6.38142 12.7627C4.97168 12.7627 3.82886 13.9055 3.82886 15.3153C3.82886 16.725 4.97168 17.8678 6.38142 17.8678Z" fill="#F78F43"/>
</svg>
