<svg width="21" height="21" viewBox="0 0 21 21" fill="none" xmlns="http://www.w3.org/2000/svg">
<path d="M14.3238 11.2424C15.3529 10.4327 16.1041 9.32244 16.4728 8.06601C16.8415 6.80957 16.8094 5.46946 16.381 4.23211C15.9526 2.99476 15.1491 1.92171 14.0825 1.16223C13.0158 0.402756 11.739 -0.00537109 10.4296 -0.00537109C9.12015 -0.00537109 7.84329 0.402756 6.77663 1.16223C5.70997 1.92171 4.90656 2.99476 4.47815 4.23211C4.04975 5.46946 4.01766 6.80957 4.38636 8.06601C4.75505 9.32244 5.50619 10.4327 6.53528 11.2424C4.77192 11.9488 3.23332 13.1206 2.08352 14.6327C0.933713 16.1448 0.215807 17.9406 0.00633144 19.8287C-0.00883147 19.9665 0.00330476 20.106 0.0420469 20.2392C0.0807891 20.3723 0.145379 20.4965 0.232128 20.6047C0.407325 20.8232 0.662148 20.9632 0.940538 20.9938C1.21893 21.0244 1.49808 20.9432 1.71659 20.768C1.93509 20.5928 2.07505 20.338 2.10567 20.0596C2.33616 18.0077 3.31456 16.1126 4.85394 14.7365C6.39332 13.3604 8.38575 12.5996 10.4506 12.5996C12.5154 12.5996 14.5078 13.3604 16.0472 14.7365C17.5865 16.1126 18.5649 18.0077 18.7954 20.0596C18.824 20.3175 18.947 20.5557 19.1409 20.7283C19.3347 20.9008 19.5856 20.9954 19.8451 20.9938H19.9606C20.2357 20.9622 20.4872 20.823 20.6602 20.6067C20.8333 20.3905 20.9138 20.1146 20.8843 19.8392C20.6738 17.9458 19.952 16.1454 18.7963 14.6309C17.6406 13.1165 16.0945 11.9451 14.3238 11.2424ZM10.4296 10.4971C9.59914 10.4971 8.78737 10.2509 8.0969 9.7895C7.40643 9.32814 6.86827 8.6724 6.55048 7.90519C6.2327 7.13798 6.14955 6.29376 6.31155 5.4793C6.47356 4.66483 6.87345 3.9167 7.46064 3.3295C8.04784 2.74231 8.79597 2.34242 9.61044 2.18042C10.4249 2.01841 11.2691 2.10156 12.0363 2.41934C12.8035 2.73713 13.4593 3.27529 13.9206 3.96576C14.382 4.65623 14.6282 5.468 14.6282 6.29842C14.6282 7.41198 14.1859 8.47993 13.3985 9.26734C12.6111 10.0547 11.5431 10.4971 10.4296 10.4971Z" fill="#F78F43"/>
</svg>
