<svg width="30" height="34" viewBox="0 0 30 34" fill="none" xmlns="http://www.w3.org/2000/svg">
<path d="M28.9483 13.4183V10.3129C28.9477 9.76835 28.804 9.2335 28.5315 8.76204C28.2589 8.29057 27.8672 7.89905 27.3956 7.62677L16.5268 1.41604C16.0548 1.14349 15.5193 1 14.9741 1C14.429 1 13.8935 1.14349 13.4215 1.41604L2.55268 7.62677C2.08108 7.89905 1.68936 8.29057 1.41684 8.76204C1.14431 9.2335 1.00056 9.76835 1 10.3129V22.7344C1.00056 23.2789 1.14431 23.8138 1.41684 24.2853C1.68936 24.7567 2.08108 25.1482 2.55268 25.4205L13.4215 31.6312C13.8935 31.9038 14.429 32.0473 14.9741 32.0473C15.5193 32.0473 16.0548 31.9038 16.5268 31.6312L19.6322 29.8612" stroke="#F78F43" stroke-width="2" stroke-linecap="round" stroke-linejoin="round"/>
<path d="M21.9612 12.4867L8.0647 4.47485" stroke="#F78F43" stroke-width="2" stroke-linecap="round" stroke-linejoin="round"/>
<path d="M1.4502 8.76019L14.9741 16.5236L28.4979 8.76019" stroke="#F78F43" stroke-width="2" stroke-linecap="round" stroke-linejoin="round"/>
<path d="M14.9741 32.0504V16.5236" stroke="#F78F43" stroke-width="2" stroke-linecap="round" stroke-linejoin="round"/>
</svg>
