<svg width="213" height="37" viewBox="0 0 213 37" fill="none" xmlns="http://www.w3.org/2000/svg">
<g clip-path="url(#clip0_427_644)" filter="url(#filter0_d_427_644)">
<path d="M14.1843 23.1139C14.0429 23.1139 13.9015 23.1139 13.8072 23.1139C12.3927 23.0657 11.0254 22.6797 9.79957 22.0041C9.51669 21.8594 9.28094 21.7146 9.0452 21.5699C7.8665 20.7978 6.87639 19.7845 6.12202 18.5782C5.98058 18.3369 5.83913 18.0956 5.69769 17.8061C5.03761 16.5515 4.66043 15.1522 4.61328 13.7046C4.61328 13.5599 4.61328 13.4151 4.61328 13.2704C4.61328 13.1256 4.61328 12.9808 4.61328 12.8361C4.66043 11.3885 5.03761 9.98915 5.69769 8.73458C5.83913 8.49331 5.98058 8.2038 6.12202 7.96253C6.87639 6.75621 7.8665 5.7429 9.0452 4.97085C9.32809 4.77784 9.56383 4.63308 9.79957 4.53657C11.0726 3.86103 12.3927 3.47501 13.8072 3.42676C13.9486 3.42676 14.0901 3.42676 14.2315 3.42676H14.2786C14.4201 3.42676 14.5615 3.42676 14.703 3.42676C16.1174 3.47501 17.4847 3.86103 18.7106 4.53657C18.9935 4.68133 19.2292 4.82609 19.4649 4.97085C19.4649 4.97085 19.5121 4.97085 19.5121 5.0191C20.6908 5.79115 21.6338 6.80446 22.3881 7.96253C22.4824 8.10729 22.5296 8.2038 22.6239 8.34855L17.7205 11.2437L17.2961 11.485C17.2961 11.485 17.249 11.4367 17.249 11.3885C16.9189 10.906 16.4946 10.4717 16.0231 10.1339C15.5045 9.84439 14.8916 9.65138 14.2786 9.65138C13.6657 9.65138 13.0528 9.79614 12.5342 10.1339C12.0155 10.4717 11.5912 10.906 11.2612 11.4367C10.9311 11.9675 10.7897 12.5948 10.7897 13.2221C10.7897 13.8494 10.9311 14.4767 11.2612 15.0075C11.5441 15.5382 12.0155 15.9725 12.5342 16.3103C13.0528 16.5998 13.6657 16.7928 14.2786 16.7928C14.8916 16.7928 15.5045 16.6481 16.0231 16.3103C16.5418 15.9725 17.0132 15.5382 17.2961 15.0075L22.6239 18.1439C22.5296 18.2887 22.4824 18.3852 22.3881 18.5299C21.6338 19.7362 20.6436 20.7496 19.4649 21.5216C19.2292 21.6664 18.9463 21.8594 18.7106 21.9559C17.4847 22.6314 16.1174 22.9692 14.703 23.0657C14.5615 23.0657 14.4201 23.0657 14.2786 23.0657C14.2315 23.1139 14.1843 23.1139 14.1843 23.1139Z" fill="#F9EDD5"/>
<path d="M16.9657 14.3797L16.73 14.7657C16.4471 15.2483 16.0699 15.6343 15.5984 15.9238C14.6555 16.4546 13.4768 16.4546 12.581 15.9238C12.1095 15.6343 11.7323 15.2483 11.4494 14.7657C11.1665 14.2832 11.0251 13.7524 11.0251 13.2216C11.0251 12.6426 11.1665 12.1118 11.4494 11.6775C11.7323 11.195 12.1095 10.809 12.581 10.5195C13.4768 9.98869 14.7026 9.98869 15.5984 10.5195C16.0228 10.809 16.4 11.1468 16.6828 11.6293L16.73 11.6775L16.9657 12.0636L23.095 8.44459C22.9535 8.15508 22.8121 7.91381 22.6235 7.62429C21.822 6.36972 20.7847 5.30815 19.5589 4.48785C19.3231 4.29484 19.0402 4.15008 18.7574 4.00532C17.5315 3.37804 16.0699 2.94376 14.5612 2.89551C14.4197 2.89551 14.2311 2.89551 14.0897 2.89551C13.9483 2.89551 13.8068 2.89551 13.6182 2.89551C12.1095 2.94376 10.695 3.37804 9.42203 4.05358C9.18629 4.15008 8.95055 4.3431 8.66766 4.48785C7.44181 5.30815 6.40455 6.36972 5.60304 7.62429C5.41444 7.86556 5.273 8.15508 5.13155 8.44459C4.47148 9.74742 4.0943 11.195 4 12.7391C4 12.8839 4 13.0286 4 13.2216C4 13.3664 4 13.5594 4 13.7042C4.0943 15.2483 4.47148 16.6958 5.13155 17.9987C5.273 18.2882 5.41444 18.5777 5.60304 18.819C6.40455 20.0735 7.44181 21.1351 8.66766 21.9554C8.9034 22.1484 9.18629 22.2932 9.46918 22.4379C10.7422 23.1135 12.1566 23.4995 13.6654 23.596C13.8068 23.596 13.9483 23.596 14.1368 23.596C14.2783 23.596 14.4669 23.596 14.6083 23.596C16.1171 23.4995 17.5315 23.1135 18.8045 22.4379C19.0874 22.2932 19.3231 22.1484 19.606 21.9554C20.8319 21.1351 21.8691 20.0735 22.6707 18.819C22.8592 18.5777 23.0007 18.2882 23.1421 17.9987L16.9657 14.3797ZM21.1148 8.5411L17.8144 10.4712C17.5315 10.6642 17.1543 10.616 16.9186 10.3265C16.6828 10.0852 16.6357 9.69917 16.7771 9.40965L18.6631 6.03195C18.8988 5.64592 19.4174 5.50117 19.7946 5.83894C20.3604 6.27321 20.879 6.80399 21.3034 7.38303C21.6334 7.76905 21.5391 8.29983 21.1148 8.5411ZM17.9087 5.59767L15.9756 8.97538C15.787 9.26489 15.457 9.40965 15.127 9.31314C14.7969 9.21664 14.5612 8.92712 14.5612 8.58935V4.68087C14.5612 4.19834 14.9855 3.86057 15.457 3.90882C16.1642 4.00532 16.8714 4.19834 17.5315 4.48785C17.9558 4.68087 18.1444 5.16339 17.9087 5.59767ZM13.6654 4.68087V8.58935C13.6654 8.92712 13.4296 9.21664 13.0996 9.31314C12.7695 9.40965 12.4395 9.26489 12.2509 8.97538L10.3178 5.59767C10.0821 5.21165 10.2707 4.68087 10.695 4.48785C11.3551 4.19834 12.0623 4.00532 12.7695 3.90882C13.241 3.86057 13.6654 4.19834 13.6654 4.68087ZM9.56348 6.03195L11.4966 9.40965C11.6851 9.69917 11.638 10.0852 11.3551 10.3265C11.1194 10.5677 10.7422 10.616 10.4593 10.4712L7.15892 8.49285C6.78174 8.25158 6.68744 7.7208 6.97033 7.33478C7.39466 6.75574 7.91329 6.22496 8.47907 5.79068C8.80911 5.54942 9.32774 5.64592 9.56348 6.03195ZM6.64029 9.3614L9.94066 11.3398C10.2236 11.5328 10.365 11.8705 10.2707 12.2083C10.1764 12.5461 9.89351 12.7874 9.56348 12.7874H5.74448C5.273 12.7874 4.94296 12.3531 4.99011 11.8706C5.08441 11.1468 5.273 10.423 5.55589 9.74742C5.74448 9.31315 6.26311 9.12013 6.64029 9.3614ZM5.74448 13.7042H9.56348C9.89351 13.7042 10.1764 13.9454 10.2707 14.2832C10.365 14.621 10.2236 14.9587 9.94066 15.1517L6.64029 17.1301C6.21596 17.3714 5.74448 17.1784 5.55589 16.7441C5.273 16.0686 5.08441 15.393 4.99011 14.621C4.94296 14.1384 5.273 13.7042 5.74448 13.7042ZM7.11178 17.9022L10.4121 15.9238C10.695 15.7308 11.0722 15.8273 11.308 16.0686C11.5437 16.3098 11.5908 16.6958 11.4023 16.9854L9.51633 20.3631C9.28059 20.7491 8.76196 20.8938 8.38477 20.5561C7.819 20.1218 7.30037 19.591 6.87603 19.012C6.64029 18.6742 6.73459 18.1434 7.11178 17.9022ZM10.365 20.8456L12.2981 17.4679C12.4867 17.1784 12.8167 17.0336 13.1467 17.1301C13.4768 17.2266 13.7125 17.5161 13.7125 17.8539V21.7624C13.7125 22.2449 13.2882 22.5827 12.8638 22.5344C12.1566 22.4379 11.4494 22.2449 10.7893 21.9554C10.2707 21.8106 10.1293 21.2799 10.365 20.8456ZM14.5612 21.7624V17.8539C14.5612 17.5161 14.7969 17.2266 15.127 17.1301C15.457 17.0336 15.787 17.1784 15.9756 17.4679L17.9087 20.8456C18.1444 21.2799 17.9558 21.7624 17.5315 21.9554C16.8714 22.2449 16.2114 22.3897 15.5041 22.5344C14.9855 22.5827 14.5612 22.2449 14.5612 21.7624ZM18.7102 20.3631L16.8243 16.9854C16.6357 16.6958 16.6828 16.3098 16.9657 16.0686C17.2015 15.8273 17.5787 15.779 17.8615 15.9238L21.1619 17.8539C21.5391 18.0952 21.6805 18.626 21.3505 19.012C20.9262 19.591 20.4075 20.1218 19.8418 20.5561C19.4646 20.8938 18.946 20.7973 18.7102 20.3631Z" fill="#FF6100"/>
<path d="M43.982 3.90866V22.486H39.3615V20.2664H39.2672C38.0414 21.907 36.1554 22.8238 33.8452 22.8238C28.8003 22.8238 25.1699 19.0118 25.1699 13.2697C25.1699 7.62413 28.8475 3.61914 33.7509 3.61914C35.9197 3.61914 37.7585 4.43944 39.0786 6.03179H39.1729V3.90866H43.982ZM39.3144 13.318C39.3144 10.3263 37.3813 8.10666 34.741 8.10666C32.1478 8.10666 30.0262 10.1333 30.0262 13.318C30.0262 16.3097 31.9592 18.3845 34.6938 18.3845C37.2398 18.3845 39.3144 16.3579 39.3144 13.318Z" fill="#FF6100"/>
<path d="M75.7593 11.6768V22.4855H70.903V12.9314C70.903 9.9397 70.0072 8.10609 67.7441 8.10609C65.7167 8.10609 64.0194 9.89144 64.0194 13.2691V22.582H59.1631V12.9314C59.1631 9.9397 58.2202 8.10609 55.957 8.10609C53.7411 8.10609 52.1381 9.89144 52.1381 13.2691V22.582H47.1875V3.90808H52.0438V6.36898H52.0909C53.5053 4.53537 55.4856 3.57031 57.5129 3.57031C59.9175 3.57031 61.8034 4.48712 62.935 6.56199H63.0293C64.538 4.63188 66.754 3.57031 69.3471 3.57031C73.3076 3.61857 75.7593 6.03121 75.7593 11.6768Z" fill="#FF6100"/>
<path d="M112.582 11.6768V22.4855H107.726V12.9314C107.726 9.9397 106.83 8.10609 104.567 8.10609C102.54 8.10609 100.842 9.89144 100.842 13.2691V22.582H95.9389V12.9314C95.9389 9.9397 94.996 8.10609 92.7329 8.10609C90.5169 8.10609 88.9139 9.89144 88.9139 13.2691V22.582H84.0576V3.90808H88.9139V6.36898H88.961C90.3755 4.53537 92.3557 3.57031 94.3831 3.57031C96.7876 3.57031 98.6735 4.48712 99.8051 6.56199H99.8994C101.408 4.63188 103.624 3.57031 106.217 3.57031C110.131 3.61857 112.582 6.03121 112.582 11.6768Z" fill="#FF6100"/>
<path d="M136.062 17.1785V8.58949V4.43974V0.53125H140.918V4.43974H145.868V8.54123H140.918V16.4547C140.918 18.0471 141.389 18.8191 142.521 18.8191C143.134 18.8191 144.03 18.5778 144.831 18.1918L146.104 22.1968C144.925 22.8241 143.7 23.3549 141.248 23.3549C138.136 23.3549 136.062 21.3765 136.062 17.1785Z" fill="#FF6100"/>
<path d="M154.779 16.6473V8.05824V3.90849V0H159.636V3.90849H164.586V8.00998H159.636V15.9235C159.636 17.5158 160.107 18.2879 161.239 18.2879C161.852 18.2879 162.747 18.0466 163.549 17.6606L164.822 21.6656C163.643 22.2928 162.417 22.8236 159.966 22.8236C156.854 22.8236 154.779 20.8453 154.779 16.6473Z" fill="#FF6100"/>
<path d="M177.505 3.66739V9.07172C177.033 9.02347 176.515 9.02347 176.232 9.02347C173.214 9.02347 171.564 11.0983 171.564 13.8488V22.486H166.708V3.90866H171.564V6.65907H171.611C172.979 4.6807 174.959 3.61914 177.128 3.61914C177.316 3.61914 177.458 3.61914 177.505 3.66739Z" fill="#FF6100"/>
<path d="M202.399 3.90866H197.873C197.873 5.64576 197.779 7.0451 196.647 7.72064C195.421 5.83877 193.488 4.48769 191.131 3.90866C190.282 3.71565 189.434 3.61914 188.491 3.61914C182.738 3.61914 178.825 7.67239 178.825 13.2215C178.825 18.7706 182.691 22.8238 188.491 22.8238C194.148 22.8238 198.156 18.9153 198.156 13.2215C198.156 12.3047 198.062 11.4844 197.873 10.6158L197.92 10.5676C200.749 9.79551 202.352 7.47937 202.399 3.90866ZM188.443 18.3845C185.709 18.3845 183.729 16.1166 183.729 13.2215C183.729 10.278 185.615 8.05841 188.443 8.05841C191.178 8.05841 193.158 10.1333 193.158 13.2215C193.158 16.2132 191.084 18.3845 188.443 18.3845Z" fill="#FF6100"/>
<path d="M192.403 2.02662H185.944L184.529 0H191.036L192.403 2.02662Z" fill="#FF6100"/>
<path d="M204.144 3.9082V22.4856H209V3.9082H204.144Z" fill="#FF6100"/>
<path d="M128.66 3.90808V5.98296H128.566C127.246 4.39061 125.407 3.57031 123.238 3.57031C118.382 3.57031 114.657 7.5753 114.657 13.2209C114.657 18.963 118.288 22.775 123.332 22.775C125.69 22.775 127.529 21.8582 128.755 20.2176H128.849V22.4855H133.469V3.90808H128.66ZM124.228 18.384C121.494 18.384 119.561 16.3091 119.561 13.3174C119.561 10.1327 121.635 8.10609 124.228 8.10609C126.869 8.10609 128.802 10.374 128.802 13.3174C128.849 16.3573 126.774 18.384 124.228 18.384Z" fill="#FF6100"/>
<path d="M126.492 26.5875C126.492 27.9385 125.407 29.0001 124.087 29.0001C122.767 29.0001 121.683 27.9385 121.683 26.5875C121.683 25.2364 122.767 24.1748 124.087 24.1748C125.407 24.1748 126.492 25.2364 126.492 26.5875Z" fill="#FF6100"/>
<path d="M127.812 0C127.293 1.54409 125.973 2.60566 124.087 2.60566C122.437 2.60566 120.928 1.68885 120.362 0H127.812Z" fill="#FF6100"/>
</g>
<defs>
<filter id="filter0_d_427_644" x="0" y="0" width="213" height="37" filterUnits="userSpaceOnUse" color-interpolation-filters="sRGB">
<feFlood flood-opacity="0" result="BackgroundImageFix"/>
<feColorMatrix in="SourceAlpha" type="matrix" values="0 0 0 0 0 0 0 0 0 0 0 0 0 0 0 0 0 0 127 0" result="hardAlpha"/>
<feOffset dy="4"/>
<feGaussianBlur stdDeviation="2"/>
<feComposite in2="hardAlpha" operator="out"/>
<feColorMatrix type="matrix" values="0 0 0 0 0 0 0 0 0 0 0 0 0 0 0 0 0 0 0.25 0"/>
<feBlend mode="normal" in2="BackgroundImageFix" result="effect1_dropShadow_427_644"/>
<feBlend mode="normal" in="SourceGraphic" in2="effect1_dropShadow_427_644" result="shape"/>
</filter>
<clipPath id="clip0_427_644">
<rect width="205" height="29" fill="white" transform="translate(4)"/>
</clipPath>
</defs>
</svg>
